<?xml version="1.0" encoding="utf-8"?>
<!-- Generator: Adobe Illustrator 24.3.0, SVG Export Plug-In . SVG Version: 6.00 Build 0)  -->
<svg version="1.1" id="Layer_1" xmlns="http://www.w3.org/2000/svg" xmlns:xlink="http://www.w3.org/1999/xlink" x="0px" y="0px"
	 viewBox="0 0 698.3 608.6" style="enable-background:new 0 0 698.3 608.6;" xml:space="preserve">
<style type="text/css">
	.st0{fill:#F2F2F2;}
	.st1{fill:#E6E6E6;}
	.st2{fill:#FFFFFF;}
	.st3{fill:#3F3D56;}
	.st4{fill:#CCCCCC;}
	.st5{fill:#63B4FF;}
	.st6{fill:#2CB743;}
	.st7{fill:#FFB6B6;}
	.st8{fill:#2F2E41;}
	.st9{fill:url(#SVGID_1_);}
	.st10{fill:url(#SVGID_2_);}
	.st11{fill:url(#SVGID_3_);}
	.st12{fill:#CACACA;}
</style>
<path class="st0" d="M326.8,598.3c0.7,0,1.2-0.5,1.3-1.2c0-0.4-0.1-0.7-0.4-0.9l-0.1-0.3v-0.1c0.7-1.7,2.6-2.4,4.3-1.7
	c0.8,0.3,1.4,1,1.7,1.8c1,2.4,2.2,4.8,2.5,7.3c0.1,1.1,0.1,2.2-0.2,3.3c2.3-5,3.5-10.5,3.5-16.1c0-1.4-0.1-2.8-0.2-4.2
	c-0.1-1.1-0.3-2.3-0.5-3.4c-1.2-6.1-3.9-11.8-7.8-16.6c-1.9-1-3.4-2.6-4.3-4.5c-0.3-0.7-0.6-1.4-0.7-2.2c0.4-1.1,0.6-2.2,0.6-3.4
	c0.3-0.4,0.8-0.7,1.1-1.1c1.6-2.2,3.8-1.8,5,1.2c2.5,1.2,2.5,3.3,1,5.3c-1,1.3-1.1,3-1.9,4.3c0.1,0.1,0.2,0.2,0.3,0.3
	c1.6,2,3,4.2,4.1,6.5c-0.3-2.6,0.1-5.2,1-7.6c0.9-2.3,2.7-4.2,4.2-6.1c1.1-1.5,3.3-1.7,4.7-0.6c0.7,0.5,1.2,1.4,1.3,2.2v0.1
	c-0.2,0.1-0.5,0.3-0.7,0.4c-0.8,0.5-1,1.5-0.5,2.3c0.3,0.4,0.7,0.6,1.1,0.7l0,0c-0.1,0.8-0.2,1.6-0.4,2.5c2,7.7-2.3,10.5-8.4,10.6
	c-0.1,0.1-0.3,0.1-0.4,0.2c1.2,3.3,1.9,6.7,2.2,10.2c0.2,2.1,0.1,4.1,0,6.2v-0.1c0.4-2.3,1.7-4.3,3.4-5.8c2.7-2.2,6.4-3,9.3-4.7
	c0.9-0.6,2.1-0.3,2.6,0.6c0.2,0.4,0.3,0.8,0.3,1.3v0.1c-0.4,0.2-0.8,0.4-1.2,0.6c-0.2,0.1-0.5,0.3-0.7,0.4c-0.8,0.5-1,1.5-0.5,2.3
	c0.3,0.4,0.7,0.6,1.1,0.7l0,0h0.1c-0.7,1.7-1.8,3.3-3,4.7c-1.2,6.7-6.6,7.3-12.3,5.4l0,0c-0.6,2.7-1.5,5.4-2.7,7.9H327
	c0-0.1-0.1-0.2-0.1-0.3c0.9,0.1,1.8,0,2.7-0.2c-0.7-0.9-1.4-1.8-2.1-2.6c0,0,0,0,0-0.1c-0.4-0.5-0.7-0.9-1.1-1.3l0,0
	C326.3,601,326.5,599.6,326.8,598.3L326.8,598.3z"/>
<path class="st0" d="M86.1,598.3c-0.7,0-1.2-0.5-1.3-1.2c0-0.4,0.1-0.7,0.4-0.9l0.1-0.3v-0.1c-0.7-1.7-2.6-2.4-4.3-1.7
	c-0.8,0.3-1.4,1-1.7,1.8c-1,2.4-2.2,4.8-2.5,7.3c-0.1,1.1-0.1,2.2,0.2,3.3c-2.3-5-3.5-10.5-3.5-16.1c0-1.4,0.1-2.8,0.2-4.2
	c0.1-1.1,0.3-2.3,0.5-3.4c1.2-6.1,3.9-11.8,7.8-16.6c1.9-1,3.4-2.6,4.3-4.5c0.3-0.7,0.6-1.4,0.7-2.2c-0.4-1.1-0.6-2.2-0.6-3.4
	c-0.3-0.4-0.8-0.7-1.1-1.1c-1.6-2.2-3.8-1.8-5,1.2c-2.5,1.2-2.5,3.3-1,5.3c1,1.3,1.1,3,1.9,4.3c-0.1,0.1-0.2,0.2-0.3,0.3
	c-1.6,2-3,4.2-4.1,6.5c0.3-2.6-0.1-5.2-1-7.6c-0.9-2.3-2.7-4.2-4.2-6.1c-1.1-1.5-3.3-1.7-4.7-0.6c-0.7,0.5-1.2,1.4-1.3,2.2v0.1
	c0.2,0.1,0.5,0.3,0.7,0.4c0.8,0.5,1,1.5,0.5,2.3c-0.3,0.4-0.7,0.6-1.1,0.7l0,0c0.1,0.8,0.2,1.6,0.4,2.5c-2,7.7,2.3,10.5,8.4,10.6
	c0.1,0.1,0.3,0.1,0.4,0.2c-1.2,3.3-1.9,6.7-2.2,10.2c-0.2,2.1-0.1,4.1,0,6.2v-0.1c-0.4-2.3-1.7-4.3-3.4-5.8c-2.7-2.2-6.4-3-9.3-4.7
	c-0.9-0.6-2.1-0.3-2.6,0.6c-0.2,0.4-0.3,0.8-0.3,1.3v0.1c0.4,0.2,0.8,0.4,1.2,0.6c0.2,0.1,0.5,0.3,0.7,0.4c0.8,0.5,1,1.5,0.5,2.3
	c-0.3,0.4-0.7,0.6-1.1,0.7l0,0h-0.1c0.7,1.7,1.8,3.3,3,4.7c1.2,6.7,6.6,7.3,12.3,5.4l0,0c0.6,2.7,1.5,5.4,2.7,7.9H86
	c0-0.1,0.1-0.2,0.1-0.3c-0.9,0.1-1.8,0-2.7-0.2c0.7-0.9,1.4-1.8,2.1-2.6c0,0,0,0,0-0.1c0.4-0.5,0.7-0.9,1.1-1.3l0,0
	C86.6,601,86.5,599.6,86.1,598.3L86.1,598.3z"/>
<path class="st1" d="M232.1,79.3c2-3.9,5.1-7.2,7-11.2s2.3-9.3-0.9-12.3c-2.7-2.6-6.9-2.6-10.2-4.5c-8.2-4.7-8.2-19.8-17.6-21.1
	c-4.6-0.6-8.7,2.8-11.5,6.5c-2.8,3.7-5,8-8.8,10.6c-4.3,2.9-10,3-14.8,5.1c-9.2,3.9-14.1,13.9-18.2,23c-2.6,5.9-5.3,12.3-4.1,18.6
	c-2.6,1.6-1.5,6,1.2,7.7s5.9,1.6,8.9,2.3c6.3,1.5,11.5,6.5,14,12.6c1.9,4.7,2.3,9.9,2.7,14.9c0.6,8.8,1.3,17.6,1.9,26.4
	c0.3,3.9,0.7,8.1,3,11.2c2.4,3.1,7.5,4.4,10.2,1.6c2.6-2.7,1.4-7.1,1.4-10.8c-0.1-3.7,3.3-8.4,6.5-6.5l1.1-2.6
	c14.9-5.3,25.3-18.9,26.6-34.7C231.5,103.8,226.6,90.4,232.1,79.3z"/>
<path class="st1" d="M239.6,158.2c2-1.9,2.1-5.1,0.2-7.2c-0.8-0.9-1.9-1.4-3.1-1.6v0.4c-1.4,0.8-2.9,1.2-4.5,1.2s-3.2,0.2-4.7,0.7
	c-1.5,0.6-2.6,2-2.6,3.6c0.2,1.2,0.9,2.3,2.1,2.9c1.1,0.5,2.3,0.9,3.5,1.1C233.6,159.9,237.2,160.4,239.6,158.2z"/>
<path class="st1" d="M300.7,79.5c1.3-0.9,2.4-2,3.3-3.4c0.8-1.4,0.7-3.2-0.3-4.4c-1-0.9-2.3-1.3-3.6-1.3c-3.6-0.3-7.1,0.2-10.5,1.2
	c3.5,3.1,7,6.2,10.5,9.3L300.7,79.5z"/>
<path class="st1" d="M283.3,87.5c1.4,1.6,1,4,0.6,6c-0.4,2.1-0.4,4.6,1.3,5.8c1.5,1,3.7,0.2,4.8-1.3c1-1.5,1.6-3.3,1.8-5.1
	c0.6-2.6,0.8-5.3,0.7-8c-0.1-2.7-1-5.3-2.7-7.5c-2.5-2.8-6.5-3.8-10-2.3l1.6-0.1c-1.2,1.5-2.1,3.2-2.6,5.1c-0.6,1.9,0,3.9,1.3,5.3
	C281.1,86.2,282.4,86.6,283.3,87.5z"/>
<path class="st1" d="M362.7,61.4l0.3-0.9c-2.5,1.4-3.6,4.4-2.7,7.1C362.1,66.2,363.1,63.8,362.7,61.4z"/>
<path class="st1" d="M347,74.1c3.1-1.8,5.2-4.9,5.6-8.4c0.2-1.1,0-2.2-0.4-3.2s-1.3-1.8-2.4-2l-0.7,1c-0.9-0.8-2.5,0-2.9,1.2
	c-0.3,1.2-0.1,2.5,0.3,3.7c0.5,1.2,0.4,2.5-0.1,3.6c-0.5,0.7-1.1,1.3-1.8,1.9c-0.7,0.6-0.8,1.6-0.3,2.3
	C345.1,74.9,346.2,74.6,347,74.1z"/>
<path class="st1" d="M340.4,68.4c0.6-1,0.8-2.2,0.8-3.3l-1.4-0.4c-0.9,0.4-1.7,1-2.4,1.7c-0.7,0.7-0.7,1.9,0,2.6s1.9,0.7,2.6,0
	C340.1,68.8,340.3,68.6,340.4,68.4z"/>
<path class="st1" d="M410.4,61.1c0.1,0.1,0.3,0.2,0.4,0.3c0.1,0,0.2-0.1,0.3-0.1L410.4,61.1z"/>
<path class="st1" d="M408.1,73.7c1.3-1.1,2.6-2.1,3.9-3.2c0.7-0.5,1.3-1.1,1.8-1.8c0.6-1.4,0.5-3-0.3-4.3c-0.7-1.1-1.6-2.1-2.7-2.9
	c-2.4,0.6-4,2.8-3.7,5.3c0.2,1.5,1.2,3.1,0.4,4.4c-0.3,0.5-0.8,0.9-1.2,1.3c-0.3,0.5-0.5,1.3,0,1.6
	C406.9,74.5,407.6,74.1,408.1,73.7z"/>
<path class="st1" d="M411,80.2c1,0.1,2-0.3,2.6-1c1.8-1.4,3.3-3.1,4.6-5c-3,0.9-5.9,1.9-8.9,2.8l0.9,1.1C409.4,78.6,410,80,411,80.2
	z"/>
<path class="st1" d="M419.3,86.3c0.4,0.9,1.3,1.5,2.3,1.4s1.9-0.7,2.4-1.5c1.4-2.1,0.9-4.9-1.2-6.3c-0.7-0.5-1.5-0.7-2.3-0.8
	l0.8,1.2C421.6,82.5,418.7,84.3,419.3,86.3z"/>
<path class="st1" d="M476.8,109.6c1.6,1.2,3.9,1.2,5.5,0c2.1-1.8,2.3-4.9,0.5-7c-0.1-0.1-0.2-0.2-0.3-0.3l-1.5,0.8
	c-1.7-1.1-4.1-0.7-5.2,1C474.8,106.1,475.2,108.3,476.8,109.6z"/>
<path class="st1" d="M494.4,111.6c1.5-0.4,2.7-1.6,3.1-3.1l-2.9-0.4c-0.8-0.6-1.8-1-2.8-1.2s-2.1,0.4-2.4,1.4
	c-0.1,0.8,0.2,1.7,0.8,2.2C491.3,111.6,492.9,112,494.4,111.6z"/>
<path class="st1" d="M482.3,117.5c0.1,1,0.8,1.8,1.7,2.1c1,0.5,2.2,0.3,3-0.5c0.6-0.7,0.6-1.8-0.1-2.4c-0.1-0.1-0.3-0.2-0.5-0.3
	l-2.2-0.4C483.3,115.7,482.3,116.6,482.3,117.5z"/>
<path class="st1" d="M354.3,133l-1.7-1.6C353.1,132.1,353.7,132.6,354.3,133z"/>
<path class="st1" d="M341.3,123.8c1.1,4.9,6.3,8.9,11.1,7.4l0.3,0.2c-1.5-2.1-1.8-5.2-1.4-7.8c1.3-9.3,7.3-17.3,15.9-21.2
	c1.2-0.4,2.2-1,3-1.9c0.7-1,0.4-2.7-0.7-3c-0.6-0.1-1.3,0.1-1.8,0.4l-8.9,4.4c-4.5,2.2-9,4.5-12.6,8
	C342.6,113.9,340.2,119,341.3,123.8z"/>
<path class="st1" d="M198.2,291.6c-8.3-5.9-17.3-10.6-26.9-14c-5.9-2.1-12.2-3.7-18.3-2.5c-6.8,1.4-12.6,6-15.4,12.3
	c-2.8,6.4-2.5,13.7,0.7,19.8c2.8,5.3,7.7,9.5,9.4,15.3c1.1,3.9,0.6,8,0,12.1c-1.1,8.2-2.2,16.4-3.3,24.6c-1,7.5-2,15.2,0.4,22.4
	c2.4,7.2,9.1,13.5,16.6,12.7l1.5-0.1c-5-3.4-6.3-10.3-4.9-16.2c1.5-5.8,5.2-10.7,8.9-15.5c10.9-14.1,21.7-28.2,32.6-42.3
	c4.4-5.7,9-12.7,6.7-19.6C204.8,296.8,201.5,294,198.2,291.6z"/>
<path class="st1" d="M124.2,256c-1.1-0.4-2.3,0.5-2.9,1.4c-0.5,1-1.1,2-1.8,2.9c-1.7,1.7-4.8,1.4-6.6-0.2c-1.8-1.6-2.6-4.1-3-6.5
	c-0.4-2.9-0.2-6.1,1.7-8.3c2-2.3,5.2-2.9,8.1-3.4c3.1-0.5,6.5-0.9,9,0.9c1.6,1.1,2.5,3,4,4.3s4.1,1.8,5.2,0.2
	c0.6-1.2,0.6-2.5-0.1-3.7c-0.6-1.1-1-2.4-1.1-3.6c0.1-1.8,1.5-3.2,3-4.2s3.1-1.9,4.1-3.4c1.2-1.8,1-4.2,1.8-6.3
	c1.8-5,8.1-7.2,9.9-12.1c0.4-1,0.5-2.2,0.1-3.3c-0.8-2-2.8-1.6-3-4c-0.1-2.3,1.8-4.6,3.8-5.5c2.7-1.3,5.8-1.2,8.8-1.3
	s6.2-0.5,8.4-2.5c2.8-2.9,2.7-7.5-0.2-10.3c-0.2-0.2-0.4-0.4-0.6-0.5c-1.6-1.1-3.7-1.5-5.3-2.7c-2-1.5-2.9-4-4.5-5.9
	c-1.3-1.5-2.8-2.8-4.4-3.9c-1.3-1-2.7-2-4-3c-2.4-1.8-4.9-3.6-7.8-4.2c-2.9-0.6-6.4,0.3-7.9,2.9c-0.6,1.2-0.9,2.4-0.9,3.7
	c-0.1,3.1,0,6.1,0.4,9.2c0.2,2.4,0.5,4.9,0.7,7.3c0.2,2.2,0,5.1-2.1,5.6c-4.7,1.3-3.1-5.7-4.2-7.8c-1.6-3.3-9-4.8-12.1-6.2
	c-2-0.9-4-1.8-5.2-3.6c-1.5-2.2-1.2-5.2,0-7.6c1.2-2.4,3-4.4,4.8-6.4c1.7-2.1,3.3-4.3,4.9-6.5c1.8-2.6,3.7-5.1,5.5-7.7
	c2.4-3.3,4.8-7.3,3.5-11.1c-0.8-1.4-2.6-1.9-4.1-1.1c-0.7,0.4-1.2,1-1.4,1.8c-0.6,2.1,1,4.7-0.5,6.2c-1.1,0.9-2.6,0.8-3.6-0.1
	c-1-0.9-1.7-2-2.2-3.3c-1.8-4-3.6-8.1-5.5-12.1c-0.6-1.3-1.2-3.4-3-3.2c-1.6,0.2-2.4,2.4-2.3,3.8c0.1,1.9,1.1,3.6,1.9,5.4
	s1.4,3.8,0.5,5.5c-1.1,2.1-4,2.6-6.4,2.6c-4.6-0.1-9-1.3-13.1-3.4c-0.1,2.2-0.2,4.5-0.3,6.7c-3.2-1.3-6.4-2.7-9.6-4
	c-0.6-0.3-1.2-0.5-1.9-0.8c-2.7-1.1-5.4-2.3-8.2-3.2c-1.6-0.5-3.2-1-4.8-1.4c-1-0.3-2-0.6-2.9-0.8c-1.9-0.7-4-1-6-0.9
	c-2.1,0.3-4.1,1.4-6,2.3c-4.4,1.9-10.1,0-14.9,0c-6.2-9.1-18.6-11.4-27.7-5.2c-2.3,1.6-4.3,3.7-5.8,6.1c-0.8,1.4-1.6,2.9-2.2,4.5
	c-0.6,1.4-1.3,2.9-1.9,4.3c-0.9,2.1-1.9,4.3-1.7,6.6s2,4.7,4.3,4.6c-5.5,2.5-6.6,11.1-2,14.9c1.3,1.1,2.9,1.7,4,2.9
	c2.4,2.5,2.4,6.5-0.1,8.9c-1.2,1.2-2.9,1.8-4.6,1.8c6.7,2.6,14.2,0.2,18.2-5.7c2-3.1,2.8-7,5.5-9.5c3.6-3.3,9.5-3.1,13.6-0.5
	s6.7,7.1,8.5,11.6c2.3,5.9,3.9,12.7,8.9,16.7c2.4,1.9,5.5,3,7.6,5.2c3,3.2,3.6,8,3.5,12.4s-0.5,9,1.1,13.1s6.2,7.5,10.3,5.9
	c-2.4,7.2,0.4,15.1,6.9,19.2c-0.8-4.7-1.5-9.3-2.3-14c3.7,1.1,6.2,4.7,7.6,8.3s2.1,7.5,4.2,10.9c3.2,5.2,9,7.5,14.9,7.4
	c6.4,0,8.8-3.1,13-7.5c0.8-0.8,1.5-1.7,1.9-2.8C125.8,257.7,125.3,256.5,124.2,256z"/>
<path class="st1" d="M142.2,255.8c-3.6-0.6-7.1-1.1-10.7-1.7c1.9,1.1,3.7,2.2,5.6,3.4c1.6,1,3.2,1.8,5,2.4s3.8,0.4,5.4-0.6l-0.5-0.9
	C146.4,256.6,144.1,256.1,142.2,255.8z"/>
<path class="st1" d="M139.8,275.5L139.8,275.5c-0.4-0.8-1.3-1.2-2.1-1c-0.8,0.1-1.7,0.2-2.5,0c-1.1-0.4-1.9-1.3-2.1-2.4
	c-0.4-1.1-0.5-2.2-0.9-3.2c-0.6-1.7-2.1-2.9-3.8-3.1c-1.8-0.1-3.4,1.2-3.6,3c0.1,0.9,0.4,1.8,0.8,2.5s0.8,1.5,1.2,2.2
	c0.3,0.7,0.7,1.3,1.1,1.9c2.4,3.3,7.1,4.1,10.4,1.6C138.9,276.6,139.4,276.1,139.8,275.5L139.8,275.5z"/>
<path class="st1" d="M119,86.4c2.7,1.6,6.1,2.7,7.4,5.6l0.7,0.2c-0.8,1-1.6,2-2.4,3c-1,1.2-2.1,2.6-2,4.2c0,2.2,2.1,3.9,4.3,4.4
	c4.7,1,9.4-1.8,10.8-6.4c0.3-0.9,0.4-1.9,0.6-2.8c0.6-2.2,1.6-4.3,2.9-6.2c7.2-12.1,14.4-24.2,21.6-36.3c0.9-1.5,1.8-3.3,1.1-4.9
	c-0.7-1.4-2.2-2.2-3.8-2.1c-1.5,0.2-3,0.7-4.3,1.5c-1.2-2.1-3.4-3.5-5.8-3.7c-2.4-0.2-4.8,0-7.1,0.6c-5.2,0.8-10.3,2.5-14.9,5.1
	c-2.5,1.3-5.3,2.9-6,5.6c-0.9,3.4,2,6.8,5.4,7.8c3.3,1,6.9,0.2,10.3-0.7c1,4.2-1.6,8.4-5.8,9.4c-2.6,0.6-5.3-0.2-7.2-2
	c-2.4-2.4-3.6-6.5-7-7.1c-3.3-0.6-6,2.9-6.7,6.2C109.5,75,112.7,82.5,119,86.4z"/>
<path class="st1" d="M160.7,144.5c-1.6-4.5-3.7-8.8-6.3-12.9c-1.9-3.2-4.3-6.1-7.1-8.6c-2.5-2.2-5.5-3.9-8.6-5.1
	c-3.1-1.1-6.5-1.7-9.6-0.6c-3.1,1-5.7,3.9-5.7,7.2c0.1,3.6,3.2,6.4,6.5,7.9s6.9,2.1,10,4c4.3,2.6,7,7.1,7.2,12.1l0.8,1.3
	c-1.8,0.6-3.4,1.5-4.9,2.7s-2.2,3.1-1.8,5c0.5,2.2,2.8,3.4,4.8,4.4c3.7,1.8,7.4,3.7,11.2,5.5c-1.9-5.7,4.3-10.9,4.7-16.9
	C161.9,148.5,161.5,146.5,160.7,144.5z"/>
<path class="st1" d="M67.1,129.3c2.3,1.8,5.7,0.9,7.8-1c2.1-2,3.1-4.8,4-7.5c-0.3,2.7-0.3,5.4,0.1,8c0.4,2.7,2,5.1,4.2,6.6
	c1,0.6,2.1,1,3.3,1.2c5.3,1.2,10.9,0.8,15.9-1.1v-1.7c-2.6,0.3-4.5-2.5-4.7-5.1c-0.2-2.6,0.8-5.1,0.8-7.6s-1.2-5.6-3.7-6
	c1.2,2.4,0.2,5.4-2.2,6.6c-1.3,0.6-2.7,0.7-4,0.2c-2.9-1.2-4-4.8-6.3-7c-2.9-2.5-7-3.1-10.4-1.5c-3.4,1.7-5.8,4.8-6.7,8.5
	C64.8,124.4,65,127.6,67.1,129.3z"/>
<path class="st1" d="M136.8,111l0.1-0.2c-0.6-1.8-2.6-2.9-4.5-3.2c-1.9-0.1-3.9-0.1-5.8,0.2c-1.9,0.2-3.9-0.2-5.5-1.2
	c-1.3-1-2.1-2.5-3.1-3.8s-2.7-2.3-4.3-1.7c-1.7,0.7-2.1,3-1.3,4.5c0.9,1.5,2.4,2.7,4,3.3C122.9,111.9,130,112.6,136.8,111z"/>
<path class="st1" d="M115.1,116.4c-1.1,0.8-1.4,2.4-0.5,3.5c0.8,1.1,2.2,1.4,3.4,0.7l0.6,0.5c0.7-1.3,1-3.1,0.1-4.3
	C117.7,115.9,116.2,115.7,115.1,116.4z"/>
<path class="st1" d="M108.6,121.2c0-1-0.6-1.9-1.5-2.2c-1.2-0.2-2.4,0.6-2.6,1.8v0.1c-0.1,1.2,0.3,2.5,1.2,3.4
	c0.5,0.7,1.3,1.2,2.1,1.3c0.9,0,1.8-0.9,1.4-1.7h-1.3C108.3,123.1,108.6,122.1,108.6,121.2z"/>
<path class="st1" d="M82.6,107.6c0.5,0.4,1,0.8,1.5,1.2c0.8,0.7,1.8,1.4,2.7,1.9c1.7,0.9,3.7,1.2,5.6,0.7s3.4-2,3.9-3.9
	c0.6-2.2-0.4-4.5-1.3-6.6c-0.2-0.6-0.6-1.1-1-1.6c-0.5-0.4-1.2-0.5-1.7-0.1c-0.4,0.5-0.5,1.1-0.3,1.6s0.3,1.1,0.3,1.7
	c-0.1,0.6-0.7,1.1-1.2,0.9l-0.1,2c-2.5-1.3-3.9-4.7-6.7-5c-1.9-0.2-3.7,1.1-3.9,3.1c-0.1,0.7,0.1,1.4,0.4,2.1
	C81.2,106.3,81.8,107,82.6,107.6z"/>
<path class="st1" d="M76.5,99.1c1.2-0.8,1.8-2.2,1.6-3.7c-0.3-1.3-1.5-2.1-2.8-1.9c-0.1,0-0.3,0.1-0.4,0.1c-0.7,0.5-1.2,1.3-1.4,2.2
	c-0.7,1.9-1.3,3.8-2,5.7l1.1-0.8C74,100.4,75.3,99.9,76.5,99.1z"/>
<path class="st1" d="M89.5,87.5c0.8-1,0.6-2.4-0.4-3.1c-0.1-0.1-0.2-0.2-0.3-0.2L87.5,84c-1.1,0.3-1.8,1.4-1.5,2.6
	c0.3,1.1,1.4,1.8,2.6,1.5C88.9,88,89.3,87.8,89.5,87.5z"/>
<path class="st1" d="M102.5,89.7c1.3,0.6,3,1.2,4.1,0.3c0.7-0.6,1-1.6,0.8-2.5s-0.6-1.7-1.2-2.4c-1.7-2.5-4-4.7-6.5-6.3l-0.6,0.8
	c-0.9,2.3-1.7,5-0.5,7.1C99.4,88.2,101,89,102.5,89.7z"/>
<path class="st1" d="M112.3,91.7l2.5,1.1C114.2,92,113.2,91.5,112.3,91.7z"/>
<path class="st1" d="M105.7,99.5l-1.2,0.4c-1,1.6-0.6,3.7-0.1,5.5c0.3,1.2,0.9,2.6,2.1,2.5s1.7-1.5,1.9-2.6c0.3-1.2,0.4-2.6,0.1-3.8
	C108.2,100.2,107,99.3,105.7,99.5z"/>
<path class="st1" d="M87.2,94l0.9,0.3c0.5-0.1,0.9-0.5,0.8-1s-0.5-0.9-1-0.8s-0.9,0.5-0.8,1C87,93.7,87.1,93.9,87.2,94z"/>
<path class="st1" d="M130.4,159.7c-1.4,0-2.6,1.2-2.6,2.7c0,0.3,0.1,0.6,0.2,0.9c0.8,1.8,3.7,1.8,5,0.3c1.3-1.7,1-4.2-0.8-5.5
	c-0.1-0.1-0.2-0.1-0.3-0.2L130.4,159.7z"/>
<path class="st1" d="M172.3,202.7c-1.4,0.4-2.2,1.8-1.9,3.2c0,0,0,0,0,0.1l2.4,0.2c0.8-0.4,1.6-0.8,2.4-1.2
	C175.1,203.4,173.8,202.4,172.3,202.7L172.3,202.7z"/>
<path class="st1" d="M162.5,205.6c-1.4,1-2.2,2.6-2.1,4.4c0.2,1.7,1.4,3.2,3.1,3.5c1.7,0.3,3.4-0.8,3.8-2.6c0.4-2.5-2.3-4.3-3.2-6.7
	L162.5,205.6z"/>
<path class="st1" d="M256.1,189.2c0.3,1.9-1.4,3.5-1.5,5.4c-0.1,2.2,2.4,4,4.6,3.8c2.2-0.4,4.2-1.8,5.2-3.8v-0.2
	c-1.1-1.2-2.2-2.5-3.3-3.7c-1.3-1.5-2.7-3.2-2.7-5.2c0-1,0.4-2,0.4-2.9c-0.1-0.7-0.2-1.4-0.5-2.1c-0.3-0.9-0.7-1.9-1.6-2.2
	c-1.1-0.4-2.2,0.6-2.7,1.6c-1,1.9-0.9,4.2,0.2,6.1C255,187,255.9,187.9,256.1,189.2z"/>
<path class="st1" d="M245.9,195.8c0.5,0.3,1.1,0.3,1.6,0.1c1-0.2,1.9-0.5,2.7-1c0.9-0.5,1.4-1.5,1.3-2.5c-0.3-1.3-1.3-2.2-2.6-2.4
	c-0.9-0.3-1.9-0.2-2.6,0.4c-0.8,0.8-0.7,2-0.6,3.1l-0.2,0.3C245.4,194.5,245.3,195.3,245.9,195.8z"/>
<path class="st1" d="M416.9,275.8c-0.2-0.6-0.5-1.2-0.7-1.8C415.9,274.8,416,275.6,416.9,275.8z"/>
<path class="st1" d="M558,152.8c-3-3.3-4.9-5.2-6.8-9.2c-2.1-4.5-6.3-7.7-11.3-8.5c-6.3-1-12.7,0.6-19,0.3c-10.1-0.5-19.3-6-29-8.9
	c-5.4-1.5-11-2.7-16.6-3.4c-3.2-0.5-6.5-1-9.7-1.5c-10.6-1.7-21.2-3.3-31.9-3.1c-3.1,0.1-7.4-0.9-7.1-3.9c0.3-3.8,7.2-3.3,8.5-6.9
	c0.8-2.2-1.1-4.6-3.3-5.6c-2.1-1-4.6-1.3-6.6-2.7c-1.9-1.4-3-4.5-1.2-6c-5,2.5-9.9,5.1-14.9,7.6c-4.1,2.1-8.7,4.9-9.5,9.4
	c-2.5,0.7-4.7,2.2-6.1,4.3c-2.8,0-5,2.7-5.4,5.5c-0.5,2.8,0.4,5.5,1.2,8.2c-1-1.9-2.1-4-3.9-5.2c-1.8-1.3-4.5-1.5-6,0.1
	c-1.6,1.6-1.2,4.3-0.1,6.3c1.1,2,2.8,3.5,3.8,5.5c3.3,6.2-2.6,15-9.6,14.3c0.5-6.4,0.9-12.8,1.4-19.2c0.3-2,0.1-4-0.5-5.9
	c-0.8-1.8-2.7-3.3-4.7-2.9c-3.5,0.8-3.2,5.9-1.7,9.2c1.5,3.3,2.9,7.8-0.1,9.8c-1.9,1.3-4.5,0.5-6.6-0.5s-4.3-2.3-6.5-1.8
	c-2.3,0.5-3.7,3.9-1.7,5.1c-3.3-0.6-6.6-1.1-9.9-1.7c-0.6,3.8-4.3,6.4-8.1,5.8c-0.2,0-0.5-0.1-0.7-0.2c-0.3-1.3-0.6-2.7-1-4
	c-0.5-0.1-1-0.3-1.5-0.4c1.5,0.4-0.9,6.8-3,11.7c-2.9-0.3-7.1-0.4-7.5-1.2c-2.3-3.9-2-13.3-6-15.5c-2-1.1-4-2.1-6.1-3
	c-1.1-0.5-2.3-0.9-3.5-1.1c-2.4-0.4-4.9,0.4-7.3,1.1c-2.8,0.9-5.6,1.8-7.9,3.6c-2,1.7-3.7,3.7-5,5.9c-4.6,6.7-9.1,13.5-13.7,20.2
	c-1.4,1.8-2.4,3.8-3.2,5.9c-0.7,2.1-0.4,4.5,0.7,6.4c1.2,1.9,3.6,2.7,5.8,2c1.3-0.6,2.6-1.9,3.9-1.3c1,0.5,1.2,1.8,1.1,2.8
	c-0.3,1.1-0.3,2.2-0.1,3.2c0.6,1.7,2.9,2.3,4.5,1.5c1.6-0.9,2.8-2.3,3.3-4c1.6-4,1.4-8.5,1.8-12.8s1.6-8.9,5-11.6
	c1-0.8,2.5-1.4,3.6-0.6c0.8,0.7,1.1,1.9,0.6,2.9c-0.4,1-1,1.9-1.7,2.7c-2.3,3.3-3.2,7.4-2.4,11.4l0.7,0.4c2.7-0.7,6.2,0.5,9.7,1.7
	c-2.6,0.8-4.8,2.3-6.4,4.4c-4.1,5.7-7,11.1-15.1,11c-1.9,0-3.8-0.4-5.7-0.4c-1.9-0.1-3.8,0.5-5.3,1.8c-1.4,1.4-1.9,3.6-3.1,5.2
	c-1.6,2.1-4.4,3-6.8,3.9c-1.8,0.7-3.7,1.6-4.6,3.4c-0.5,1.4-0.6,3-0.3,4.5c0.3,2.7,0.8,5.7,3,7.1c1.7,0.9,3.7,1.1,5.5,0.5
	c2.4-0.6,4.6-1.6,7.1-1.5c3.8,0.3,6.9,3.9,6.9,7.7c0,1.9-0.5,4.1,0.7,5.6c1.2,1.4,3.6,1.1,4.8-0.2c1.2-1.4,1.6-3.3,1-5.1
	c-0.5-1.7-1.3-3.4-2.4-4.8c2.6-0.7,5.3,0.6,6.5,3c0.8,1.9,0.6,4,0.8,6.1c0.3,2,1.5,4.3,3.6,4.4c1.4,0,2.6-0.9,2.9-2.3
	c0-1,0-2.1-0.2-3.1c0.1-2.1,1.9-3.7,4-3.7c-1.3,2.4-0.7,5.3,1.4,7c1.6,1.2,3.6,1.5,5.6,1.8s4,0.9,5.3,2.4c2.1,2.5-0.5,3.7-0.9,5.8
	c-0.5,2.6,1.7,6.5,2.6,9c3.9,5.4,7.8,10.9,11.6,16.3c0.9,1.3,1.9,2.5,3,3.6c3.8,3.3,10.2,3,13.8-0.5c3.7-3.7,4.5-9.4,2-13.9
	c-2.3-4.1-6.8-6.7-9-10.9c3.7,3.1,8.2,4.9,13,5.4c8.5,1.7,16.5,5.1,23.7,9.9c0.3,7.5,3.2,14.6,8.1,20.3c0.9-6.4,3.9-12.3,8.5-16.8
	c3-2.9,7.1-5.3,11.2-4.5s7.2,6,4.7,9.4c2.1,0.2,4.2,0.3,6.2,0.5c0.9,2.3,1.9,4.6,2.8,7c0.3-1,1.3-1.7,2.3-1.6
	c1.9,0.3,3.3,2.1,5.2,2.8c3.5,1.3,7.2-2.2,7.7-5.9c0.5-3.7-1.3-7.2-3-10.5c10.7,2,20.9-5.1,22.9-15.8c0.9-4.9-0.1-9.9-2.7-14.1
	c4-4.3,8.8-7.8,14.1-10.4c4.9-2.4,10.2-4.1,14.4-7.4c4.3-3.4,7.2-9.2,5.2-14.3c-1.4-3.6-5.1-6-6.2-9.6c-1.6-5.3,3.2-10.8,8.6-12.2
	c5.4-1.3,11,0.3,16.3,1.9c-0.8-5.5,5.5-10.6,10.7-8.6c2.2-0.9,4.3-1.8,6.5-2.6c-2.5,5.5-8,9.1-12,13.6c-4,4.6-6.4,12-2.2,16.4
	c6-5.4,12-10.9,18-16.3c6.3-5.7,12.5-11.4,18.8-17c-0.3-0.9-0.6-1.8-0.9-2.6C545.9,157.5,552.3,155.6,558,152.8z"/>
<path class="st1" d="M246.7,225.9c-0.5,0.7-0.5,1.7,0,2.4c0.7,0.6,1.6,0.6,2.3,0c0.6-0.5,1.1-1.2,1.5-2c0.6,1.2,2,1.9,3.4,1.8
	c1.3-0.2,2.6-0.7,3.7-1.5c0.9-0.5,1.6-1.2,2.2-2s0.8-1.8,0.6-2.8c-0.3-0.7-0.8-1.4-1.5-1.9c-1.6-1.5-3.2-2.9-4.8-4.4l-0.5-0.2
	c-1.1-1.2-3.1-1.3-4.3-0.1l-0.1,0.1c-1,1.1-1,2.7-0.8,4.2s0.4,3-0.3,4.4C247.8,224.6,247.1,225.2,246.7,225.9z"/>
<path class="st1" d="M338.7,276c-12.6-2.8-22.4-12.7-25.1-25.3c-0.6-2.9-0.8-6.1-2.8-8.3c-1.9-2.2-4.9-3-7.8-3s-5.7,0.7-8.6,0.8
	c-5,0.3-10.3-1-13.9-4.5c-1.7-1.7-3-3.8-5-5.1c-2.7-1.8-6.2-1.8-9.2-0.8c-3.4,1.1-6.1,4.2-9.8,3.7c-3.8-0.4-8.3-1.8-9.8,3.3
	c-0.4,1.5-0.3,3.1-0.8,4.5c-0.8,2.2-3.1,3.4-4.9,4.9c-3.6,3.1-5.5,7.8-6.1,12.4c-0.6,4.7-0.1,9.4,0.4,14.1c0.3,2.5,0.6,5.3,2.4,7.1
	c2.4,2.6,6.5,2.5,10,2.2c4.1-0.3,8.2-0.7,12.3-1c2.2-0.2,4.7-0.3,6.3,1.3c0.9,0.9,1.3,2.3,2.2,3.3c1.5,1.8,4.1,2.3,6.3,1.3
	c-2.8,5-1,11.3,4,14.1c1.2,0.7,2.5,1.1,3.8,1.3l0.3,0.2c-2.6,4.5-5.4,9.6-4.3,14.7c0.9,4.4,4.6,7.9,5.2,12.3
	c0.5,4.1-1.6,8.2-0.6,12.2c1,4.1,5,6.9,9.2,7.2s8.2-1.5,11.4-4.2s5.7-6,8.1-9.4c1.5-2.1,3.1-4.2,3.6-6.8c0.6-2.7-0.1-5.6,1.2-8
	c1.5-2.8,5.1-3.8,6.9-6.4c2.3-3.4,1-7.9,1.5-12C326.3,292.3,339,286.1,338.7,276z"/>
<path class="st1" d="M336.9,310.2c-0.3,1.6-1.8,2.6-3.2,3.4c-1.4,0.8-2.9,1.6-3.6,3c-0.7,1.5-0.4,3.2,0,4.8c0.8,3.3,1.7,6.6,2.8,9.9
	c2.1-3.9,3.9-8,5.4-12.2c0.7-1.6,1.1-3.2,1.2-4.9c0.1-1.7-0.5-3.4-1.6-4.6L336.9,310.2z"/>
<path class="st1" d="M422.6,292.7c-1.7-2-3.5-4-5.2-6.1c-1.2-1.4-2.6-2.9-4.4-3.1l-0.7,0.5c1.5,3.6,3,7.2,4.6,10.8
	c0.5,1.6,1.5,3.1,2.7,4.3c1.4,1.1,3.6,1.3,4.7,0c0.7-1,0.9-2.3,0.4-3.5C424.1,294.6,423.4,293.6,422.6,292.7z"/>
<path class="st1" d="M439.5,296.6c1.3-0.5,2.4-1.5,3-2.8c0.5-1.3,0.9-2.6,1.1-4c0.3-1.8,0.6-3.6,0.9-5.4l-0.4-0.1
	c-0.8-0.4-1.7-0.1-2.2,0.6c-0.4,0.7-0.8,1.5-1,2.3s-0.8,1.5-1.6,1.8c-1.4,0.4-2.7-1.1-4.2-1c-1.2,0.2-2.2,1.1-2.3,2.4
	c-0.1,1.2,0.3,2.4,1,3.4C435,295.7,437.3,297.3,439.5,296.6z"/>
<path class="st1" d="M449.2,300l4-10.6C449.9,291.8,448.3,296,449.2,300z"/>
<path class="st1" d="M469.8,291.5H469c-0.7,1.5-0.8,3.2,0,4.7c0.7,1.5,1.8,2.7,3,3.7c2,1.6,4.3,2.9,6.7,3.7c3.6,1,7.3,1.6,11,1.7
	c2.1,0.1,4.3,0.3,6.4,0.4c1,0.1,2.3-0.1,2.6-1c0.2-0.8-0.5-1.6-1.1-2.1c-5.6-4.8-12.5-7.9-19.8-9C475,293.2,472.1,293,469.8,291.5z"
	/>
<path class="st1" d="M492.6,319.7c-1.5-1.5-3.1-3-4.6-4.5c-1.5-1.4-3.7-3-5.4-1.8c-1,0.7-1.3,2-2.1,2.9c-1,0.9-2.5,1.3-3.8,0.9
	s-2.6-1-3.7-1.7l-3.8-2.4c-1.3-0.8-2.6-1.6-3.9-2.4l-3,2.9c0.1-1.4-1.8-2.3-3.1-1.8c-1.3,0.7-2.1,2-2.4,3.4
	c-0.2,1.4-0.6,2.8-1.1,4.1c-1.5,2.9-5.2,3.7-8.4,4.2s-6.9,1.2-8.6,3.9c-1.4,2.3-1,5.3-0.5,7.9l1.8,10.1c0.1,1.2,0.6,2.4,1.4,3.3
	c1.6,1.4,4.1,0.6,6-0.3c4.1-2,8.4-3.2,12.9-3.7s9.1,0.7,12.8,3.3c2.3,1.8,4.1,4.2,6.5,5.7c3.4,2.1,7.6,2.4,11.3,1
	c3.7-1.5,6.7-4.2,8.6-7.7c3.4-6.2,3.2-13.8-0.4-19.9C497.2,324.3,495,321.9,492.6,319.7z"/>
<path class="st1" d="M488,360.8c-0.8,0.9-0.8,2.2-0.2,3.2c0.7,1,1.7,1.6,2.8,1.8c1.1,0.2,2.3,0.3,3.5,0.2v-0.9c-0.3-1.5-1-2.9-2-4.1
	C491,360,489.1,359.7,488,360.8z"/>
<path class="st1" d="M527.6,361.7l-0.6-0.2c-1.3,2-2.6,3.9-3.9,5.9c-0.7,1.1-1.4,2.3-1,3.5c0.5,1.4,2.4,1.8,3.9,1.5
	c2.3-0.6,4-2.5,4.4-4.8C530.6,365.3,529.6,362.9,527.6,361.7z"/>
<path class="st1" d="M537.5,355.4l-3.6-2.9c0,1.3-0.1,2.7-0.1,4h-0.1c0.8,0.7,1.6,1.5,2.4,2.3c0.8,0.7,2.3,1,3,0.2
	c0.4-0.6,0.5-1.4,0.1-2.1C538.7,356.4,538.2,355.9,537.5,355.4z"/>
<path class="st1" d="M472.2,230.4c-1.5,0-3.2-0.1-4.4,0.8c-0.4,0.3-0.7,0.7-1,1.2l-0.4,0.6c-0.6,0.8-1.2,1.7-1.6,2.6
	c-0.5,0.9-0.6,1.9-0.2,2.8c0.4,0.8,1.3,1.2,2.2,0.8c0.1,0,0.2-0.1,0.3-0.1c0.6-0.6,0.5-1.7,1-2.4c0.4-0.6,1.1-0.9,1.8-0.9
	c0.7,0,1.4,0.1,2.1,0.2c5.5,0.8,10.6-3.1,11.3-8.6c0.3-2.4-0.2-4.8-1.5-6.8l-0.1-0.4c-2.2-0.1-4.1,1.4-4.6,3.5
	c-0.3,1.8,0.4,3.8-0.7,5.3C475.5,230.2,473.7,230.4,472.2,230.4z"/>
<path class="st1" d="M485.8,211.6h-0.2c-1.4,0.2-2.7,0.7-3.8,1.4c-0.4,0.2-0.7,0.5-0.9,0.9c-0.1,0.4,0,0.9,0.3,1.2s0.6,0.6,1,0.8
	c0.6,0.4,1.2,0.7,1.9,0.8c0.7,0.2,1.4,0,1.9-0.5c0.5-0.7,0.6-1.5,0.4-2.3C486.2,213.1,486.1,212.4,485.8,211.6z"/>
<path class="st1" d="M462.4,230.8c0.4-0.6,0.6-1.2,0.8-1.9c0.1-0.5,0.3-1,0.4-1.6l-1.5-0.9c-0.7,0.4-1.4,0.9-2,1.4
	c-0.6,0.6-0.9,1.4-0.9,2.2s0.7,1.5,1.5,1.7C461.4,231.7,462,231.4,462.4,230.8z"/>
<path class="st1" d="M297.6,90.1c-0.6,0.4-0.4,1.3-0.2,1.9c0.3,0.8,0.6,1.5,0.8,2.3l0.4-1.5c0.3-0.6,0.5-1.2,0.4-1.9
	C299,90.3,298.2,89.8,297.6,90.1z"/>
<path class="st2" d="M675.3,227h-253c-12.7,0-23-10.3-23-23V23c0-12.7,10.3-23,23-23h253c12.7,0,23,10.3,23,23v181
	C698.3,216.7,688,227,675.3,227z"/>
<path class="st3" d="M675.3,227h-253c-12.7,0-23-10.3-23-23V23c0-12.7,10.3-23,23-23h253c12.7,0,23,10.3,23,23v181
	C698.3,216.7,688,227,675.3,227z M422.3,2c-11.6,0-21,9.4-21,21v181c0,11.6,9.4,21,21,21h253c11.6,0,21-9.4,21-21V23
	c0-11.6-9.4-21-21-21H422.3z"/>
<path class="st4" d="M491.1,27.6h-40c-2.2,0-4-1.8-4-4s1.8-4,4-4h40c2.2,0,4,1.8,4,4S493.3,27.6,491.1,27.6z"/>
<path class="st4" d="M578.1,117.6h-127c-2.2,0-4-1.8-4-4s1.8-4,4-4h127c2.2,0,4,1.8,4,4S580.3,117.6,578.1,117.6z"/>
<circle class="st5" cx="473.6" cy="65.5" r="26.8"/>
<rect x="447.1" y="193.9" class="st3" width="6" height="2"/>
<path class="st3" d="M629.3,195.9h-12.6v-2h12.6V195.9z M604.1,195.9h-12.6v-2h12.6V195.9z M579,195.9h-12.6v-2H579V195.9z
	 M553.8,195.9h-12.6v-2h12.6V195.9z M528.6,195.9H516v-2h12.6V195.9z M503.5,195.9h-12.6v-2h12.6V195.9z M478.3,195.9h-12.6v-2h12.6
	V195.9z"/>
<rect x="641.9" y="193.9" class="st3" width="6" height="2"/>
<rect x="544" y="158.6" class="st5" width="5" height="34"/>
<rect x="595" y="158.6" class="st5" width="5" height="34"/>
<rect x="620" y="177.6" class="st5" width="5" height="15"/>
<rect x="569" y="143.6" class="st6" width="5" height="49"/>
<circle class="st6" cx="90" cy="220.6" r="6"/>
<circle class="st5" cx="106" cy="191.6" r="6"/>
<circle class="st6" cx="282" cy="168.6" r="6"/>
<polygon class="st7" points="144.2,597.5 153.3,597.5 157.6,562.6 144.2,562.6 "/>
<path class="st8" d="M143.9,606.9h27.8v-0.4c0-6-4.8-10.8-10.8-10.8l0,0l-5.1-3.9l-9.5,3.9h-2.4V606.9z"/>
<polygon class="st7" points="212.2,597.5 221.3,597.5 225.6,562.6 212.2,562.6 "/>
<path class="st8" d="M211.9,606.9h27.8v-0.4c0-6-4.8-10.8-10.8-10.8l0,0l-5.1-3.9l-9.5,3.9h-2.4V606.9z"/>
<path class="st7" d="M143.9,313.5l16.1-2.3c5.4,9.1,7.4,33.3,7.4,33.3l15.7,37.4c3.3,2.2,4.1,6.7,1.9,10c-2.2,3.3-6.7,4.1-10,1.9
	c-2.1-1.4-3.3-3.9-3.1-6.5L146,343.7L143.9,313.5z"/>
<linearGradient id="SVGID_1_" gradientUnits="userSpaceOnUse" x1="245.4953" y1="234.9294" x2="125.4953" y2="327.9294">
	<stop  offset="0" style="stop-color:#2CB743"/>
	<stop  offset="1" style="stop-color:#63B4FF"/>
</linearGradient>
<path class="st9" d="M152.6,268.9L152.6,268.9c-9.3,1.4-15.7,10.2-14.3,19.5c0.2,1,0.4,2.1,0.8,3.1l3.4,9.7c0,0-4.3,29.1,2.8,37.3
	l21.7-2c0,0-4-14.7-0.9-21.8c1.9-4.3,1.8-19.4-0.1-31.6C164.6,273.8,161.9,267.5,152.6,268.9z"/>
<path class="st8" d="M227.5,356.6c0,0,16.7,16.3,13.2,20.1s-11.7,9-4.2,9.9s10.7,2.7,4.2,4.3s-5.6,5.6-5.6,5.6s9.9,47.1,2.4,78.1
	c0,0-4.2,84.7-6.8,91.3s-3.6,2.6-2.6,6.6s3-3,1,4c-1.1,3.7-2,7.4-2.6,11.1l-19.6-3c0,0-3.1-9.9,0-12.5s6-1,2.6-6.8s-4.4,2.2-3.4-5.8
	s-3.2-51.3,3.4-74.1l-12.2-64.2L178,487.6c0,0-10.3,81.1-13.6,84s-8.3-2.1-3.3,2.9s4.9,4.1,5,5c0.9,9.2-27.7-0.9-27.7-0.9
	c0.2-2.3,0.2-4.7,0-7c-0.3-2.1,3.3-2.8,0-5s1.6,0,1.6,0s7.4-59.9,13-78l6.5-88.3c0,0,0.4,1.8,0-2.5s-3.4-1.3-0.4-4.3s5-4.5,3-6.8
	s-7.5-6.8-4.3-9.5s9.7-20.6,9.7-20.6l62.5,0.5"/>
<linearGradient id="SVGID_2_" gradientUnits="userSpaceOnUse" x1="249.0159" y1="272.5041" x2="132.0159" y2="359.5041">
	<stop  offset="0" style="stop-color:#2CB743"/>
	<stop  offset="1" style="stop-color:#63B4FF"/>
</linearGradient>
<path class="st10" d="M204,257.4l-11.3-12.7l-17.8,2l-11.4,16l0,0c-12.6,2.9-20.7,15.1-18.5,27.9c4.4,25.5,19.5,50.2,14.5,62.8
	c-7.5,19.1-8,26.9,10,24.2s78.5-8.8,66.8-20.6S222,325.6,222,325.6l-0.5-44.8c2-10.8-5.2-21.2-16-23.2
	C205,257.5,204.5,257.4,204,257.4z"/>
<path class="st7" d="M200.9,306.5l16.1-2.3c5.4,9.1,7.4,33.3,7.4,33.3l15.7,37.4c3.3,2.2,4.1,6.7,1.9,10c-2.2,3.3-6.7,4.1-10,1.9
	c-2.1-1.4-3.3-3.9-3.1-6.5L203,336.7L200.9,306.5z"/>
<linearGradient id="SVGID_3_" gradientUnits="userSpaceOnUse" x1="263.084" y1="247.084" x2="179.084" y2="331.084">
	<stop  offset="0" style="stop-color:#2CB743"/>
	<stop  offset="1" style="stop-color:#63B4FF"/>
</linearGradient>
<path class="st11" d="M209.6,261.9L209.6,261.9c-9.3,1.4-15.7,10.2-14.3,19.5c0.2,1,0.4,2.1,0.8,3.1l3.4,9.7c0,0-4.3,29.1,2.8,37.3
	l21.7-2c0,0-4-14.7-0.9-21.8c1.9-4.3,1.8-19.4-0.1-31.6C221.6,266.8,218.9,260.5,209.6,261.9z"/>
<circle class="st7" cx="178.9" cy="222.1" r="21.5"/>
<path class="st8" d="M174.9,243.1c6-1.5,6.2-3.2,12.2-4.7c1.9-0.5,4.1-1.2,4.7-3.1c0.3-1.4-0.1-2.8-1.1-3.9c-0.9-1-1.8-2.1-2.6-3.3
	c-1.8-3.1-0.8-7.1,2.3-9c0.7-0.4,1.5-0.7,2.2-0.8c1.9-0.3,3.8,0.2,5.6-0.1c2.6-0.3,6.3-9.8,4.7-11.8c-1.6-1.9-4.2-3.1-5.1-5.4
	c-0.6-1.5-0.3-3.3-0.5-4.9c-0.4-2.4-5.2,4.3-4.6,1.9c1.6-5.8-25.3-6.7-28.1,0.7c-1,2.8-3.9,3.2-6.1,5.2c-1.4,1.3-4.8,5.5-5.3,7.7
	c-0.4,2.3-0.3,4.6,0.2,6.9c2.2,10.5,5.9,19.9,15.8,24.2"/>
<path class="st12" d="M5.2,608.3l389.7,0.3c0.7,0,1.2-0.5,1.2-1.2s-0.5-1.2-1.2-1.2l0,0L5.2,605.9c-0.7,0-1.2,0.5-1.2,1.2
	S4.5,608.3,5.2,608.3L5.2,608.3z"/>
</svg>
